<svg id="visual" viewBox="0 0 900 600" width="900" height="600" xmlns="http://www.w3.org/2000/svg" xmlns:xlink="http://www.w3.org/1999/xlink" version="1.1"><rect x="0" y="0" width="900" height="600" fill="#ffffff"></rect><defs><linearGradient id="grad1_0" x1="33.3%" y1="0%" x2="100%" y2="100%"><stop offset="20%" stop-color="#ffffff" stop-opacity="1"></stop><stop offset="80%" stop-color="#ffffff" stop-opacity="1"></stop></linearGradient></defs><defs><linearGradient id="grad2_0" x1="0%" y1="0%" x2="66.7%" y2="100%"><stop offset="20%" stop-color="#ffffff" stop-opacity="1"></stop><stop offset="80%" stop-color="#ffffff" stop-opacity="1"></stop></linearGradient></defs><g transform="translate(900, 0)"><path d="M0 324.5C-51.3 307.2 -102.7 289.9 -153 265C-203.3 240.1 -252.6 207.7 -281 162.2C-309.4 116.8 -317 58.4 -324.5 0L0 0Z" fill="#469293"></path></g><g transform="translate(0, 600)"><path d="M0 -324.5C53.5 -310.9 106.9 -297.3 157 -271.9C207.1 -246.6 253.7 -209.5 281 -162.2C308.4 -115 316.4 -57.5 324.5 0L0 0Z" fill="#469293"></path></g></svg>